<?xml version="1.0" encoding="UTF-8" standalone="no"?>
<svg xmlns="http://www.w3.org/2000/svg" version="1.2" baseProfile="tiny" viewBox="0.00 0.00 600.00 133.00">
<path fill="#a41d21" d="
  M 600.00 3.74
  L 600.00 4.33
  C 592.01 26.69 579.76 48.50 562.62 64.87
  C 549.81 77.12 534.39 88.21 519.35 98.25
  C 519.23 98.34 519.12 98.33 519.02 98.22
  L 519.01 98.22
  C 518.90 98.11 518.91 97.99 519.04 97.87
  C 533.62 84.66 545.37 73.20 554.28 63.51
  C 566.07 50.69 577.03 36.76 587.17 21.72
  C 588.08 20.36 587.97 20.26 586.82 21.43
  C 576.37 32.05 565.16 40.57 551.45 46.19
  C 534.61 53.08 517.11 57.71 498.94 60.06
  C 498.55 60.11 498.50 60.01 498.79 59.74
  C 499.94 58.71 502.00 57.04 504.97 54.71
  C 520.37 42.65 535.51 28.97 546.72 12.10
  C 546.94 11.77 546.86 11.68 546.49 11.81
  C 544.68 12.45 542.90 14.02 541.53 14.78
  C 524.09 24.50 504.65 32.22 483.20 37.94
  C 454.22 45.67 425.49 49.38 397.02 49.07
  C 379.62 48.88 359.28 46.69 336.01 42.50
  C 315.22 38.75 294.53 33.77 273.96 27.54
  C 273.71 27.46 273.44 27.47 273.19 27.57
  C 253.46 35.32 233.55 41.49 212.98 45.26
  C 193.47 48.83 172.46 51.97 152.77 54.61
  C 152.42 54.66 152.24 54.86 152.24 55.22
  C 152.27 61.14 150.58 65.93 146.38 70.78
  C 143.99 73.55 142.06 75.65 140.61 77.09
  C 139.43 78.26 139.02 78.04 139.39 76.41
  C 140.25 72.56 140.13 68.23 139.02 63.41
  C 138.93 63.03 138.70 62.85 138.31 62.86
  C 136.89 62.91 134.29 62.87 130.50 62.74
  C 124.00 62.53 118.69 59.84 113.41 56.05
  C 113.13 55.84 112.84 55.83 112.53 56.01
  C 102.98 61.70 95.38 68.95 89.73 77.74
  C 88.72 79.32 88.32 79.18 88.53 77.32
  C 89.46 69.15 92.00 61.83 99.85 57.57
  C 104.93 54.80 109.46 53.08 113.44 52.40
  C 113.76 52.34 114.06 52.39 114.35 52.56
  C 121.11 56.51 128.95 58.82 137.87 59.49
  C 138.80 59.56 139.44 59.67 139.80 59.82
  C 141.84 60.67 142.56 64.15 142.42 66.03
  C 142.28 68.05 142.20 69.19 142.18 69.44
  C 142.11 70.39 142.35 70.48 142.89 69.69
  C 146.39 64.55 150.62 55.74 147.95 49.68
  C 147.15 47.87 145.34 45.70 142.52 43.17
  C 137.50 38.67 123.85 29.11 117.18 32.15
  C 115.77 32.79 113.38 33.76 110.01 35.07
  C 106.89 36.28 104.42 35.51 102.60 32.76
  C 101.91 31.72 100.73 29.55 99.04 26.25
  C 98.53 25.26 98.77 25.02 99.76 25.53
  C 102.46 26.92 105.22 28.07 108.04 28.99
  C 110.45 29.77 112.64 29.74 114.61 28.89
  C 117.16 27.80 118.86 26.04 119.69 23.60
  C 119.79 23.29 119.76 23.00 119.60 22.73
  C 117.70 19.53 110.69 17.61 106.94 16.74
  C 93.45 13.60 84.86 14.06 66.89 13.85
  C 66.42 13.84 66.07 14.04 65.84 14.44
  C 61.89 21.26 57.16 26.95 51.63 31.52
  C 45.99 36.18 39.89 38.44 32.78 38.47
  C 22.38 38.52 12.96 36.28 2.92 33.56
  C -0.02 32.76 0.03 32.36 3.08 32.37
  C 12.90 32.38 22.12 31.67 30.75 30.24
  C 36.68 29.26 42.21 27.48 47.26 24.22
  C 52.98 20.53 58.14 15.87 62.75 10.25
  C 63.06 9.86 63.47 9.63 63.97 9.54
  C 73.07 7.99 82.17 7.30 91.26 7.47
  C 103.31 7.69 113.92 11.31 123.11 18.33
  C 123.58 18.69 124.21 19.58 125.02 21.01
  C 126.09 22.90 125.20 26.36 124.66 27.89
  C 124.52 28.28 124.76 28.71 125.17 28.78
  C 129.80 29.64 133.77 30.21 137.38 32.85
  C 143.26 37.14 150.56 43.79 152.07 51.14
  C 152.12 51.39 152.27 51.50 152.53 51.45
  C 194.32 43.36 234.30 30.23 272.46 12.07
  C 272.77 11.92 273.08 11.93 273.39 12.10
  C 282.03 16.91 291.65 20.98 302.25 24.33
  C 338.81 35.87 377.80 39.87 416.00 39.80
  C 461.11 39.72 507.17 29.22 546.46 7.19
  C 549.72 5.36 553.07 3.25 556.51 0.85
  C 557.68 0.03 557.96 0.27 557.35 1.56
  C 555.74 5.02 554.25 8.04 552.89 10.63
  C 543.52 28.49 530.13 42.55 512.74 52.80
  C 511.80 53.36 511.86 53.51 512.92 53.24
  C 534.21 47.98 554.89 39.67 572.49 26.85
  C 581.99 19.94 590.93 12.33 599.32 4.02
  C 599.44 3.91 599.58 3.84 599.73 3.81
  C 599.82 3.80 599.91 3.77 600.00 3.74
  Z"
/>
<path fill="#dddddd" d="
  M 476.87 98.95
  C 476.75 100.30 477.62 101.25 479.49 101.82
  C 486.04 103.81 490.17 105.16 491.87 105.88
  C 495.40 107.37 497.25 109.99 497.42 113.72
  C 497.62 118.23 495.67 124.38 492.21 127.55
  C 490.63 129.00 488.44 130.15 485.65 131.02
  C 478.22 133.33 470.72 133.15 463.14 130.47
  C 462.72 130.32 462.49 130.02 462.46 129.57
  L 462.02 123.48
  C 462.00 123.23 462.26 123.06 462.48 123.17
  C 469.57 126.64 484.92 130.20 486.00 118.04
  C 487.08 105.96 461.96 116.38 466.23 98.10
  C 469.48 84.20 488.68 85.60 498.72 88.79
  C 498.89 88.84 499.02 89.00 499.03 89.19
  L 499.55 96.28
  C 499.56 96.42 499.41 96.52 499.28 96.45
  C 494.13 93.61 488.39 92.72 482.05 93.77
  C 478.86 94.30 477.14 96.02 476.87 98.95
  Z"
/>
<path fill="#a41d21" d="
  M 55.18 112.24
  C 54.99 112.26 54.88 112.47 54.96 112.65
  L 64.00 131.81
  C 64.12 132.08 64.03 132.21 63.74 132.21
  L 52.64 132.21
  C 52.30 132.21 52.07 132.05 51.95 131.74
  L 43.37 109.72
  C 43.03 108.85 42.78 108.87 42.62 109.80
  L 38.76 131.78
  C 38.71 132.07 38.53 132.22 38.23 132.22
  L 28.89 132.22
  C 28.53 132.22 28.38 132.04 28.44 131.68
  L 36.20 87.48
  C 36.23 87.32 36.37 87.20 36.54 87.20
  C 48.37 87.16 55.78 87.16 58.75 87.20
  C 65.54 87.29 70.97 90.40 70.08 98.03
  C 69.11 106.38 64.14 111.11 55.18 112.24
  Z
  M 43.02 107.38
  C 42.98 107.61 43.07 107.74 43.32 107.75
  C 45.20 107.85 48.10 107.86 52.04 107.77
  C 55.25 107.70 57.57 106.41 59.00 103.89
  C 61.36 99.74 60.78 92.97 54.60 92.88
  C 51.04 92.82 48.22 92.81 46.15 92.83
  C 45.89 92.84 45.66 93.02 45.62 93.28
  L 43.02 107.38
  Z"
/>
<path fill="#a41d21" d="
  M 101.02 106.38
  L 100.14 111.41
  C 100.11 111.58 99.97 111.70 99.80 111.70
  L 83.36 111.70
  C 83.19 111.70 83.05 111.82 83.02 111.99
  L 80.56 126.03
  C 80.52 126.24 80.69 126.44 80.91 126.44
  L 100.69 126.44
  C 100.91 126.44 101.08 126.64 101.04 126.85
  L 100.15 131.90
  C 100.12 132.07 99.98 132.19 99.81 132.19
  L 69.56 132.19
  C 69.34 132.19 69.17 131.99 69.21 131.78
  L 76.99 87.48
  C 77.02 87.31 77.16 87.19 77.33 87.19
  L 107.34 87.19
  C 107.56 87.19 107.73 87.39 107.69 87.60
  L 106.81 92.57
  C 106.78 92.74 106.64 92.86 106.47 92.86
  L 86.70 92.86
  C 86.53 92.86 86.39 92.98 86.36 93.15
  L 84.17 105.56
  C 84.13 105.77 84.30 105.97 84.52 105.97
  L 100.67 105.97
  C 100.89 105.97 101.06 106.17 101.02 106.38
  Z"
/>
<path fill="#a41d21" d="
  M 104.97 132.02
  L 112.75 87.77
  C 112.80 87.46 112.98 87.31 113.29 87.30
  C 125.66 87.15 132.65 87.12 134.26 87.19
  C 150.02 87.88 145.75 108.54 142.79 117.60
  C 140.80 123.72 137.55 128.87 131.57 131.17
  C 129.88 131.82 127.23 132.17 123.62 132.20
  C 118.67 132.25 112.49 132.24 105.09 132.17
  C 105.01 132.16 104.96 132.10 104.97 132.02
  Z
  M 122.07 93.41
  L 116.37 125.87
  C 116.32 126.17 116.44 126.32 116.74 126.33
  C 122.42 126.46 125.53 126.45 126.06 126.30
  C 130.13 125.11 132.85 122.33 134.22 117.95
  C 135.96 112.37 139.82 98.94 134.29 94.44
  C 131.85 92.45 125.53 92.72 122.62 92.91
  C 122.34 92.93 122.12 93.13 122.07 93.41
  Z"
/>
<path fill="#dddddd" d="
  M 184.51 114.31
  L 181.47 131.66
  C 181.41 131.97 181.14 132.20 180.82 132.20
  L 171.48 132.20
  C 171.17 132.20 171.05 132.05 171.10 131.74
  L 178.82 87.75
  C 178.88 87.41 179.08 87.24 179.43 87.23
  C 190.24 87.15 197.68 87.15 201.73 87.24
  C 210.89 87.44 213.89 92.41 212.33 100.90
  C 209.61 115.71 196.62 113.71 185.13 113.79
  C 184.78 113.79 184.58 113.96 184.51 114.31
  Z
  M 185.64 107.64
  C 185.59 107.88 185.69 108.00 185.94 108.01
  C 187.83 108.10 190.76 108.08 194.72 107.96
  C 197.95 107.87 200.28 106.54 201.70 103.99
  C 204.04 99.79 203.40 92.98 197.17 92.94
  C 193.58 92.91 190.75 92.92 188.66 92.97
  C 188.40 92.98 188.18 93.16 188.13 93.42
  L 185.64 107.64
  Z"
/>
<path fill="#dddddd" d="
  M 221.55 121.74
  L 216.19 132.03
  C 216.14 132.14 216.02 132.21 215.90 132.21
  L 209.43 132.21
  C 209.19 132.21 209.03 131.95 209.14 131.73
  L 232.23 87.37
  C 232.28 87.26 232.40 87.19 232.52 87.19
  L 243.62 87.19
  C 243.78 87.19 243.92 87.31 243.95 87.46
  L 251.74 131.80
  C 251.78 132.00 251.62 132.19 251.42 132.19
  L 241.68 132.19
  C 241.52 132.19 241.38 132.07 241.35 131.92
  L 239.59 121.83
  C 239.56 121.68 239.42 121.56 239.26 121.56
  L 221.84 121.56
  C 221.72 121.56 221.60 121.63 221.55 121.74
  Z
  M 238.10 114.98
  C 238.29 114.98 238.44 114.81 238.41 114.62
  L 235.27 96.76
  C 235.22 96.47 234.82 96.41 234.69 96.67
  L 225.40 114.53
  C 225.29 114.73 225.44 114.98 225.67 114.98
  L 238.10 114.98
  Z"
/>
<path fill="#dddddd" d="
  M 260.34 92.44
  L 261.22 87.49
  C 261.25 87.32 261.40 87.19 261.57 87.19
  L 295.83 87.19
  C 296.06 87.19 296.22 87.39 296.19 87.61
  L 295.32 92.56
  C 295.29 92.73 295.14 92.86 294.97 92.86
  L 283.24 92.86
  C 283.07 92.86 282.92 92.99 282.89 93.16
  L 276.08 131.90
  C 276.05 132.07 275.90 132.20 275.73 132.20
  L 266.14 132.20
  C 265.92 132.20 265.75 132.00 265.78 131.78
  L 272.55 93.28
  C 272.58 93.06 272.41 92.86 272.19 92.86
  L 260.70 92.86
  C 260.48 92.86 260.31 92.66 260.34 92.44
  Z"
/>
<path fill="#dddddd" d="
  M 319.89 112.23
  C 319.69 112.25 319.58 112.46 319.67 112.64
  L 328.69 131.79
  C 328.81 132.05 328.72 132.19 328.43 132.19
  L 317.34 132.18
  C 317.00 132.18 316.77 132.03 316.65 131.71
  L 308.09 109.71
  C 307.75 108.83 307.50 108.86 307.34 109.79
  L 303.47 131.75
  C 303.42 132.04 303.24 132.19 302.94 132.19
  L 293.61 132.18
  C 293.25 132.18 293.10 132.00 293.16 131.64
  L 300.93 87.48
  C 300.96 87.32 301.10 87.20 301.27 87.20
  C 313.09 87.17 320.49 87.17 323.46 87.21
  C 330.25 87.30 335.67 90.41 334.78 98.04
  C 333.80 106.38 328.84 111.11 319.89 112.23
  Z
  M 307.74 107.39
  C 307.69 107.63 307.79 107.75 308.03 107.76
  C 309.92 107.86 312.82 107.87 316.76 107.78
  C 319.98 107.72 322.30 106.42 323.73 103.90
  C 326.09 99.74 325.51 92.97 319.32 92.88
  C 315.76 92.82 312.94 92.81 310.86 92.84
  C 310.60 92.84 310.38 93.02 310.33 93.28
  L 307.74 107.39
  Z"
/>
<path fill="#dddddd" d="
  M 337.87 104.35
  C 340.55 95.68 345.39 89.20 354.58 87.61
  C 367.20 85.42 376.79 89.50 375.72 103.98
  C 375.40 108.32 374.73 112.13 373.71 115.43
  C 371.03 124.09 366.19 130.58 357.00 132.17
  C 344.38 134.36 334.79 130.28 335.86 115.79
  C 336.18 111.46 336.85 107.64 337.87 104.35
  Z
  M 347.60 108.17
  C 346.53 113.45 344.10 124.31 351.28 125.75
  C 360.10 127.53 362.53 117.80 363.81 111.51
  C 364.88 106.23 367.30 95.38 360.13 93.93
  C 351.30 92.15 348.87 101.88 347.60 108.17
  Z"
/>
<path fill="#dddddd" d="
  M 390.33 99.45
  C 390.09 98.66 389.90 98.67 389.76 99.48
  L 384.05 131.97
  C 384.03 132.10 383.91 132.19 383.78 132.19
  L 376.94 132.19
  C 376.77 132.19 376.70 132.11 376.73 131.95
  L 384.53 87.55
  C 384.57 87.31 384.71 87.19 384.96 87.19
  L 396.97 87.19
  C 397.22 87.19 397.44 87.35 397.51 87.59
  L 406.70 117.84
  C 407.01 118.85 407.25 118.83 407.43 117.80
  L 412.76 87.44
  C 412.79 87.27 412.89 87.19 413.06 87.19
  L 419.97 87.19
  C 420.12 87.19 420.24 87.32 420.21 87.47
  L 412.41 131.87
  C 412.38 132.06 412.22 132.19 412.03 132.19
  L 400.74 132.19
  C 400.43 132.19 400.23 132.04 400.14 131.75
  L 390.33 99.45
  Z"
/>
<path fill="#dddddd" d="
  M 440.53 133.00
  L 433.52 133.00
  C 425.61 131.70 419.82 129.21 421.37 119.80
  C 423.86 104.67 425.70 93.97 426.88 87.70
  C 426.95 87.35 427.16 87.18 427.51 87.18
  L 437.18 87.18
  C 437.33 87.18 437.44 87.31 437.41 87.46
  C 435.66 97.54 433.90 107.62 432.11 117.71
  C 431.68 120.11 431.59 121.79 431.84 122.75
  C 432.88 126.80 438.21 127.19 441.83 126.52
  C 446.54 125.66 447.84 122.51 448.63 117.84
  C 450.37 107.61 452.15 97.48 453.97 87.44
  C 454.00 87.27 454.10 87.19 454.27 87.19
  L 462.47 87.19
  C 462.64 87.19 462.70 87.27 462.67 87.44
  C 459.69 104.14 457.81 114.83 457.03 119.52
  C 455.62 128.04 449.05 132.23 440.53 133.00
  Z"
/>
</svg>
