<?xml version="1.0"?>
<svg width="111" height="103.04504504504504" xmlns="http://www.w3.org/2000/svg" xmlns:svg="http://www.w3.org/2000/svg" version="1.2">

 <g class="layer">
  <title>Layer 1</title>
  <path d="m109,5.74l0,0.59c-7.99,22.36 -20.24,44.17 -37.38,60.54c-12.81,12.25 -28.23,23.34 -43.27,33.38c-0.12,0.09 -0.23,0.08 -0.33,-0.03l-0.01,0c-0.11,-0.11 -0.1,-0.23 0.03,-0.35c14.58,-13.21 26.33,-24.67 35.24,-34.36c11.79,-12.82 22.75,-26.75 32.89,-41.79c0.91,-1.36 0.8,-1.46 -0.35,-0.29c-10.45,10.62 -21.66,19.14 -35.37,24.76c-16.84,6.89 -34.34,11.52 -52.51,13.87c-0.39,0.05 -0.44,-0.05 -0.15,-0.32c1.15,-1.03 3.21,-2.7 6.18,-5.03c15.4,-12.06 30.54,-25.74 41.75,-42.61c0.22,-0.33 0.14,-0.42 -0.23,-0.29c-1.81,0.64 -3.59,2.21 -4.96,2.97c-17.44,9.72 -36.88,17.44 -58.33,23.16c-28.98,7.73 -57.71,11.44 -86.18,11.13c-17.4,-0.19 -37.74,-2.38 -61.01,-6.57c-20.79,-3.75 -41.48,-8.73 -62.05,-14.96c-0.25,-0.08 -0.52,-0.07 -0.77,0.03c-19.73,7.75 -39.64,13.92 -60.21,17.69c-19.51,3.57 -40.52,6.71 -60.21,9.35c-0.35,0.05 -0.53,0.25 -0.53,0.61c0.03,5.92 -1.66,10.71 -5.86,15.56c-2.39,2.77 -4.32,4.87 -5.77,6.31c-1.18,1.17 -1.59,0.95 -1.22,-0.68c0.86,-3.85 0.74,-8.18 -0.37,-13c-0.09,-0.38 -0.32,-0.56 -0.71,-0.55c-1.42,0.05 -4.02,0.01 -7.81,-0.12c-6.5,-0.21 -11.81,-2.9 -17.09,-6.69c-0.28,-0.21 -0.57,-0.22 -0.88,-0.04c-9.55,5.69 -17.15,12.94 -22.8,21.73c-1.01,1.58 -1.41,1.44 -1.2,-0.42c0.93,-8.17 3.47,-15.49 11.32,-19.75c5.08,-2.77 9.61,-4.49 13.59,-5.17c0.32,-0.06 0.62,-0.01 0.91,0.16c6.76,3.95 14.6,6.26 23.52,6.93c0.93,0.07 1.57,0.18 1.93,0.33c2.04,0.85 2.76,4.33 2.62,6.21c-0.14,2.02 -0.22,3.16 -0.24,3.41c-0.07,0.95 0.17,1.04 0.71,0.25c3.5,-5.14 7.73,-13.95 5.06,-20.01c-0.8,-1.81 -2.61,-3.98 -5.43,-6.51c-5.02,-4.5 -18.67,-14.06 -25.34,-11.02c-1.41,0.64 -3.8,1.61 -7.17,2.92c-3.12,1.21 -5.59,0.44 -7.41,-2.31c-0.69,-1.04 -1.87,-3.21 -3.56,-6.51c-0.51,-0.99 -0.27,-1.23 0.72,-0.72c2.7,1.39 5.46,2.54 8.28,3.46c2.41,0.78 4.6,0.75 6.57,-0.1c2.55,-1.09 4.25,-2.85 5.08,-5.29c0.1,-0.31 0.07,-0.6 -0.09,-0.87c-1.9,-3.2 -8.91,-5.12 -12.66,-5.99c-13.49,-3.14 -22.08,-2.68 -40.05,-2.89c-0.47,-0.01 -0.82,0.19 -1.05,0.59c-3.95,6.82 -8.68,12.51 -14.21,17.08c-5.64,4.66 -11.74,6.92 -18.85,6.95c-10.4,0.05 -19.82,-2.19 -29.86,-4.91c-2.94,-0.8 -2.89,-1.2 0.16,-1.19c9.82,0.01 19.04,-0.7 27.67,-2.13c5.93,-0.98 11.46,-2.76 16.51,-6.02c5.72,-3.69 10.88,-8.35 15.49,-13.97c0.31,-0.39 0.72,-0.62 1.22,-0.71c9.1,-1.55 18.2,-2.24 27.29,-2.07c12.05,0.22 22.66,3.84 31.85,10.86c0.47,0.36 1.1,1.25 1.91,2.68c1.07,1.89 0.18,5.35 -0.36,6.88c-0.14,0.39 0.1,0.82 0.51,0.89c4.63,0.86 8.6,1.43 12.21,4.07c5.88,4.29 13.18,10.94 14.69,18.29c0.05,0.25 0.2,0.36 0.46,0.31c41.79,-8.09 81.77,-21.22 119.93,-39.38c0.31,-0.15 0.62,-0.14 0.93,0.03c8.64,4.81 18.26,8.88 28.86,12.23c36.56,11.54 75.55,15.54 113.75,15.47c45.11,-0.08 91.17,-10.58 130.46,-32.61c3.26,-1.83 6.61,-3.94 10.05,-6.34c1.17,-0.82 1.45,-0.58 0.84,0.71c-1.61,3.46 -3.1,6.48 -4.46,9.07c-9.37,17.86 -22.76,31.92 -40.15,42.17c-0.94,0.56 -0.88,0.71 0.18,0.44c21.29,-5.26 41.97,-13.57 59.57,-26.39c9.5,-6.91 18.44,-14.52 26.83,-22.83c0.12,-0.11 0.26,-0.18 0.41,-0.21c0.09,-0.01 0.18,-0.04 0.27,-0.07z" fill="#a41d21" id="svg_1"/>
 </g>
</svg>