<svg width="48" height="40" viewBox="0 0 48 40" fill="none" xmlns="http://www.w3.org/2000/svg">
<path d="M37.9817 16.7911C37.4974 16.7911 37.0938 17.1948 37.0938 17.6791V19.9798C37.0938 20.4642 37.4974 20.8678 37.9817 20.8678H46.8617C47.346 20.8678 47.7496 20.4642 47.7496 19.9798V17.6791C47.7496 17.1948 47.346 16.7911 46.8617 16.7911H37.9817Z" fill="#EA2127"/>
<path d="M0.887992 16.9122C0.403633 16.9122 0 17.3159 0 17.8002V20.1009C0 20.5853 0.403633 20.9889 0.887992 20.9889H9.76791C10.2523 20.9889 10.6559 20.5853 10.6559 20.1009V17.8002C10.6559 17.3159 10.2523 16.9122 9.76791 16.9122H0.887992Z" fill="#00AEEF"/>
<path d="M23.2896 0H19.778H17.9617H16.1453C15.661 0 15.2573 0.403633 15.2573 0.887992V39.0716C15.2573 39.556 15.661 39.9596 16.1453 39.9596H17.9617H19.778H23.2896C30.9183 39.9596 33.663 37.2553 33.663 29.8285V26.7608C33.663 20.1816 30.4339 19.778 28.4561 19.2533C31.4833 18.4864 33.0171 16.5489 33.1786 12.2301L33.219 9.52573C33.2593 2.26034 29.6266 0 23.2896 0ZM20.7064 5.32795H23.2896C26.3169 5.32795 27.5681 7.02321 27.5681 9.56609V12.2704C27.5681 14.6922 26.3572 16.67 23.2896 16.67H20.7064V5.32795ZM20.7467 21.7558H23.2896C25.9939 21.7558 27.9717 23.1282 27.9717 26.8012V29.8688C27.9717 33.8244 25.9536 34.7528 23.2896 34.7528H20.7467V21.7558Z" fill="#FEFEFE"/>
</svg>
